#!OML:ASF F:\VICON\USERDATA\INSTALL\rory3\rory3.ASF
:FULLY-SPECIFIED
:DEGREES
755
root 7.92318 18.068 6.17199 10.5316 26.152 4.70003
lowerback -8.7676 -0.251011 -3.09475
upperback -3.01784 0.00518554 -1.96618
thorax 1.78809 0.01661 -0.289972
lowerneck -17.9631 2.66624 4.83234
upperneck 24.2258 3.42887 -3.76683
head 10.9488 1.57481 -1.66829
rclavicle 2.08475e-014 5.1684e-015
rhumerus -34.6669 -0.89161 -86.8637
rradius 23.0638
rwrist 12.6405
rhand -20.716 9.9328
rfingers 7.12502
rthumb 5.64852 -19.9719
lclavicle 2.08475e-014 5.1684e-015
lhumerus -40.2188 -12.6604 87.3703
lradius 33.4712
lwrist 10.8613
lhand -8.07892 26.5857
lfingers 7.12502
lthumb 17.8329 55.7881
rfemur -8.8675 -5.72225 11.2358
rtibia 52.1133
rfoot -3.40847 9.33129
rtoes -16.5838
lfemur -27.5332 11.3294 -29.424
ltibia 30.817
lfoot -11.285 -3.4792
ltoes -10.8786
756
root 7.99673 18.0723 6.25841 10.4508 26.1727 4.7452
lowerback -8.55195 -0.264491 -3.13124
upperback -3.06396 -0.0193412 -2.04496
thorax 1.62166 0.00646105 -0.352564
lowerneck -17.7431 2.6821 5.1707
upperneck 23.9873 3.41184 -3.98821
head 10.8278 1.5729 -1.80782
rclavicle -3.28367e-014 1.19271e-014
rhumerus -34.8376 -1.54684 -86.4669
rradius 22.6765
rwrist 13.1094
rhand -20.5977 10.2092
rfingers 7.12502
rthumb 5.76274 -19.6924
lclavicle -3.28367e-014 1.19271e-014
lhumerus -40.1305 -13.2052 87.3892
lradius 34.1511
lwrist 11.2691
lhand -8.21906 26.5567
lfingers 7.12502
lthumb 17.698 55.7713
rfemur -9.80726 -6.04601 11.0837
rtibia 53.5252
rfoot -4.29458 8.22771
rtoes -17.4271
lfemur -26.9535 11.2055 -29.4336
ltibia 30.733
lfoot -11.654 -3.37771
ltoes -10.7172
757
root 8.06892 18.0768 6.3433 10.4574 26.1918 4.87468
lowerback -8.49369 -0.294634 -3.21671
upperback -3.03117 -0.0527644 -2.10325
thorax 1.62382 -0.0103806 -0.368005
lowerneck -17.5568 2.69031 5.27426
upperneck 23.6477 3.43095 -4.14502
head 10.6726 1.57275 -1.87753
rclavicle 4.5472e-015 2.14687e-014
rhumerus -34.9945 -2.0115 -86.0724
rradius 22.5075
rwrist 13.5226
rhand -20.6529 10.2087
rfingers 7.12502
rthumb 5.7095 -19.6944
lclavicle 4.5472e-015 2.14687e-014
lhumerus -39.8461 -13.6597 87.4006
lradius 34.7618
lwrist 11.7041
lhand -8.44638 26.4265
lfingers 7.12502
lthumb 17.4793 55.6607
rfemur -10.788 -6.35601 10.8477
rtibia 54.7581
rfoot -5.12604 7.47755
rtoes -17.8648
lfemur -26.4411 11.0833 -29.5491
ltibia 30.6698
lfoot -12.0263 -3.229
ltoes -11.103
758
root 8.13482 18.0801 6.42582 10.365 26.2706 4.78923
lowerback -8.44533 -0.310065 -3.12103
upperback -2.99833 -0.0835108 -2.07223
thorax 1.63167 -0.0264794 -0.392444
lowerneck -17.4509 2.66339 5.08902
upperneck 23.4888 3.42467 -4.06343
head 10.5883 1.5638 -1.81725
rclavicle 9.14472e-014 3.26007e-014
rhumerus -35.1789 -2.47666 -85.6402
rradius 22.3706
rwrist 14.006
rhand -20.8523 10.1548
rfingers 7.12502
rthumb 5.51694 -19.7534
lclavicle 9.14472e-014 3.26007e-014
lhumerus -39.5527 -14.0015 87.4686
lradius 35.3201
lwrist 12.2912
lhand -8.67578 26.2857
lfingers 7.12502
lthumb 17.2585 55.5393
rfemur -11.7754 -6.6108 10.8832
rtibia 55.8104
rfoot -5.83032 7.11312
rtoes -18.3657
lfemur -25.9684 10.9322 -29.4442
ltibia 30.5927
lfoot -12.3319 -3.08323
ltoes -11.2015
759
root 8.2012 18.0827 6.50926 10.2674 26.4084 4.68419
lowerback -8.42646 -0.394396 -3.03024
upperback -2.97668 -0.204745 -2.01856
thorax 1.64558 -0.0875469 -0.399652
lowerneck -17.1713 2.70457 5.1734
upperneck 23.2173 3.51473 -4.26128
head 10.4457 1.59174 -1.88917
rclavicle 4.9311e-014 8.54774e-015
rhumerus -35.3767 -2.65773 -85.356
rradius 22.2556
rwrist 14.2548
rhand -20.9866 10.1342
rfingers 7.12502
rthumb 5.38727 -19.7774
lclavicle 4.9311e-014 8.54774e-015
lhumerus -39.2771 -14.0718 87.4257
lradius 35.855
lwrist 12.6924
lhand -8.95889 26.2266
lfingers 7.12502
lthumb 16.986 55.5039
rfemur -12.7029 -6.84362 10.9634
rtibia 56.6868
rfoot -6.46233 6.85377
rtoes -18.3889
lfemur -25.4902 10.781 -29.3259
ltibia 30.5001
lfoot -12.5842 -2.99784
ltoes -10.7693
760
root 8.26945 18.0854 6.59324 10.209 26.4765 4.83408
lowerback -8.3516 -0.457198 -3.15552
upperback -2.9109 -0.278809 -2.05698
thorax 1.67353 -0.125116 -0.376076
lowerneck -17.1948 2.71856 5.2501
upperneck 23.2413 3.53569 -4.351
head 10.4634 1.5971 -1.93131
rclavicle 3.75455e-014 1.78906e-015
rhumerus -35.5526 -2.93492 -85.0924
rradius 22.1987
rwrist 14.3902
rhand -21.0691 10.2294
rfingers 7.12502
rthumb 5.3076 -19.6841
lclavicle 3.75455e-014 1.78906e-015
lhumerus -38.9678 -14.3138 87.3652
lradius 36.5185
lwrist 13.1736
lhand -9.29129 26.4188
lfingers 7.12502
lthumb 16.666 55.7234
rfemur -13.4966 -7.04325 10.7604
rtibia 57.3988
rfoot -7.15724 6.51111
rtoes -17.2734
lfemur -24.8862 10.6739 -29.4635
ltibia 30.3962
lfoot -12.945 -2.79356
ltoes -11.5901
761
root 8.33422 18.0876 6.67726 10.0948 26.5404 4.86548
lowerback -8.28453 -0.503252 -3.21885
upperback -2.83963 -0.336832 -2.0373
thorax 1.71146 -0.155035 -0.325713
lowerneck -17.4669 2.69945 5.03011
upperneck 23.5429 3.50071 -4.08804
head 10.6145 1.59007 -1.80556
rclavicle -4.79879e-014 3.97569e-016
rhumerus -35.7068 -3.29404 -84.7299
rradius 22.1677
rwrist 14.6249
rhand -21.0563 10.2863
rfingers 7.12502
rthumb 5.32 -19.627
lclavicle -4.79879e-014 3.97569e-016
lhumerus -38.6142 -14.4075 87.2652
lradius 37.1319
lwrist 13.454
lhand -9.54585 26.4621
lfingers 7.12502
lthumb 16.4209 55.7871
rfemur -14.3046 -7.17846 10.7065
rtibia 57.9588
rfoot -7.94344 6.20016
rtoes -15.9051
lfemur -24.2972 10.6056 -29.4613
ltibia 30.3196
lfoot -13.2983 -2.69799
ltoes -12.2465
762
root 8.39442 18.0879 6.75637 10.0207 26.7081 4.91391
lowerback -8.20911 -0.60722 -3.29104
upperback -2.77384 -0.471183 -2.03347
thorax 1.74063 -0.222872 -0.293968
lowerneck -17.5873 2.73991 5.02208
upperneck 23.7138 3.54758 -4.0379
head 10.7019 1.61567 -1.77981
rclavicle 2.06363e-014 -1.90833e-014
rhumerus -35.8503 -3.45581 -84.4884
rradius 22.1762
rwrist 14.6427
rhand -20.9879 10.394
rfingers 7.12502
rthumb 5.38606 -19.5175
lclavicle 2.06363e-014 -1.90833e-014
lhumerus -38.2554 -14.4126 87.0388
lradius 37.7759
lwrist 13.552
lhand -9.61323 26.4055
lfingers 7.12502
lthumb 16.3561 55.7358
rfemur -15.1704 -7.32411 10.7087
rtibia 58.3943
rfoot -8.81445 5.85762
rtoes -15.4277
lfemur -23.7901 10.4501 -29.4623
ltibia 30.2733
lfoot -13.613 -2.63638
ltoes -12.5459
763
root 8.4537 18.0884 6.83221 9.93993 26.8592 4.79181
lowerback -8.18331 -0.710221 -3.19455
upperback -2.74208 -0.617764 -1.97809
thorax 1.76172 -0.296703 -0.304894
lowerneck -17.5777 2.79551 5.05708
upperneck 23.7894 3.63203 -4.08314
head 10.734 1.65225 -1.79035
rclavicle 4.47079e-014 -1.19271e-014
rhumerus -35.9417 -3.54178 -84.3089
rradius 22.1474
rwrist 14.5883
rhand -21.0337 10.5841
rfingers 7.12502
rthumb 5.34183 -19.3286
lclavicle 4.47079e-014 -1.19271e-014
lhumerus -37.9203 -14.3828 86.8211
lradius 38.4004
lwrist 13.7447
lhand -9.58939 26.3089
lfingers 7.12502
lthumb 16.379 55.6373
rfemur -16.1119 -7.47366 10.9087
rtibia 58.6832
rfoot -9.71234 5.53209
rtoes -15.271
lfemur -23.4017 10.3343 -29.3321
ltibia 30.2833
lfoot -13.9486 -2.54016
ltoes -13.2505
764
root 8.51042 18.0868 6.9059 9.7878 26.9682 4.65992
lowerback -8.02578 -0.781858 -3.09902
upperback -2.72283 -0.730018 -1.90251
thorax 1.69642 -0.352512 -0.289261
lowerneck -17.5555 2.83466 5.03778
upperneck 23.8547 3.71762 -4.15658
head 10.7595 1.68114 -1.80179
rclavicle -6.78353e-015 1.78906e-014
rhumerus -36.116 -3.5294 -84.1489
rradius 22.2637
rwrist 14.3694
rhand -20.9393 10.6995
rfingers 7.12502
rthumb 5.43294 -19.2109
lclavicle -6.78353e-015 1.78906e-014
lhumerus -37.5703 -14.2591 86.6537
lradius 38.985
lwrist 13.9271
lhand -9.54058 26.1924
lfingers 7.12502
lthumb 16.426 55.517
rfemur -16.9704 -7.5158 11.1265
rtibia 58.8243
rfoot -10.6041 5.3115
rtoes -14.4215
lfemur -22.9864 10.328 -29.1883
ltibia 30.3784
lfoot -14.2714 -2.49633
ltoes -14.4412
765
root 8.56576 18.086 6.98133 9.76129 27.047 4.68746
lowerback -7.94904 -0.805632 -3.15307
upperback -2.70931 -0.761097 -1.88999
thorax 1.66924 -0.367772 -0.248063
lowerneck -17.5326 2.83178 5.06119
upperneck 23.9197 3.7351 -4.24401
head 10.7823 1.68124 -1.83549
rclavicle 4.90253e-014 5.1684e-015
rhumerus -36.3819 -3.46653 -84.0157
rradius 22.4831
rwrist 13.9446
rhand -20.7449 10.6684
rfingers 7.12502
rthumb 5.62068 -19.2371
lclavicle 4.90253e-014 5.1684e-015
lhumerus -37.2403 -14.25 86.5147
lradius 39.6507
lwrist 14.0885
lhand -9.60487 26.4835
lfingers 7.12502
lthumb 16.3641 55.8132
rfemur -17.886 -7.4412 11.21
rtibia 58.8267
rfoot -11.4786 5.09556
rtoes -12.4343
lfemur -22.6983 10.3471 -29.2119
ltibia 30.5569
lfoot -14.5023 -2.5179
ltoes -14.117
766
root 8.62007 18.0933 7.05695 9.76225 27.1393 4.70411
lowerback -7.89853 -0.799379 -3.20135
upperback -2.70714 -0.750807 -1.91247
thorax 1.64357 -0.362287 -0.242593
lowerneck -17.6002 2.80281 5.12072
upperneck 24.099 3.68335 -4.25175
head 10.8603 1.66187 -1.85696
rclavicle -6.62015e-014 -5.96354e-015
rhumerus -36.7224 -3.5403 -83.9111
rradius 22.7118
rwrist 13.5232
rhand -20.7278 10.7718
rfingers 7.12502
rthumb 5.63717 -19.1332
lclavicle -6.62015e-014 -5.96354e-015
lhumerus -36.9274 -14.4883 86.4109
lradius 40.3454
lwrist 14.4905
lhand -9.98881 26.6203
lfingers 7.12502
lthumb 15.9944 55.98
rfemur -18.7965 -7.31193 11.3205
rtibia 58.6841
rfoot -12.2554 4.90375
rtoes -11.5166
lfemur -22.4155 10.2657 -29.2194
ltibia 30.713
lfoot -14.426 -2.62737
ltoes -10.0461
